<svg id="图层_1" data-name="图层 1" xmlns="http://www.w3.org/2000/svg" viewBox="0 0 118.35 70.82"><defs><style>.cls-1{fill:#231916;}</style></defs><title>molstack</title><path class="cls-1" d="M9,72.84c.18-.62.39-1.28.64-2L11,67.1h2v7.84H11.62V71c0-.58,0-1.26.07-2h-.06c-.06.23-.14.48-.23.75s-.18.56-.28.82L9.49,74.94H8.57L7,70.51c-.1-.26-.2-.54-.29-.82s-.16-.52-.23-.75h0c0,.73.07,1.4.07,2v4H5V67.1H7l1.35,3.74c.23.62.44,1.29.64,2Z" transform="translate(-5.01 -4.27)"/><path class="cls-1" d="M30.61,71a5.1,5.1,0,0,1-.25,1.65A3.68,3.68,0,0,1,29.62,74a3.37,3.37,0,0,1-1.21.84,4.11,4.11,0,0,1-1.62.3,4.18,4.18,0,0,1-1.62-.3A3.42,3.42,0,0,1,24,74a3.68,3.68,0,0,1-.74-1.28,5.33,5.33,0,0,1,0-3.29A3.73,3.73,0,0,1,24,68.09a3.53,3.53,0,0,1,1.2-.83,4.18,4.18,0,0,1,1.62-.3,4.11,4.11,0,0,1,1.62.3,3.48,3.48,0,0,1,1.21.83,3.73,3.73,0,0,1,.74,1.29A5.08,5.08,0,0,1,30.61,71Zm-1.48,0A4.29,4.29,0,0,0,29,69.77a2.63,2.63,0,0,0-.49-.89,1.84,1.84,0,0,0-.74-.53,2.39,2.39,0,0,0-.94-.18,2.34,2.34,0,0,0-.93.18,1.84,1.84,0,0,0-.74.53,2.63,2.63,0,0,0-.49.89,4.72,4.72,0,0,0,0,2.51,2.63,2.63,0,0,0,.49.89,2.06,2.06,0,0,0,.74.53,2.34,2.34,0,0,0,.93.18,2.39,2.39,0,0,0,.94-.18,2.06,2.06,0,0,0,.74-.53,2.63,2.63,0,0,0,.49-.89A4.32,4.32,0,0,0,29.13,71Z" transform="translate(-5.01 -4.27)"/><path class="cls-1" d="M42,67.1v6.64h3.67v1.2h-5.1V67.1Z" transform="translate(-5.01 -4.27)"/><path class="cls-1" d="M59.25,72.69a.74.74,0,0,0-.15-.48,1.14,1.14,0,0,0-.4-.3,2.93,2.93,0,0,0-.57-.19l-.65-.14c-.31-.07-.6-.15-.88-.24a2.53,2.53,0,0,1-.73-.38,1.78,1.78,0,0,1-.5-.62,2,2,0,0,1-.19-.94,2.45,2.45,0,0,1,.22-1.08,2.11,2.11,0,0,1,.58-.76,2.53,2.53,0,0,1,.88-.45A3.91,3.91,0,0,1,58,67a6.88,6.88,0,0,1,1.26.12,5.44,5.44,0,0,1,1.09.32v1.23a6.65,6.65,0,0,0-1.17-.35,5.88,5.88,0,0,0-1.06-.11,2,2,0,0,0-1.09.26.88.88,0,0,0-.38.77.89.89,0,0,0,.12.49,1,1,0,0,0,.35.32,2.19,2.19,0,0,0,.49.21l.6.14c.33.07.65.15.95.24A2.76,2.76,0,0,1,60,71a1.92,1.92,0,0,1,.56.64,2.34,2.34,0,0,1,.2,1,2.47,2.47,0,0,1-.23,1.09,2.15,2.15,0,0,1-.67.77,2.82,2.82,0,0,1-1,.44,5.69,5.69,0,0,1-1.35.15A5.86,5.86,0,0,1,56.17,75a3.65,3.65,0,0,1-1-.35V73.4a5.45,5.45,0,0,0,1.13.36,5.38,5.38,0,0,0,1.14.12,3.71,3.71,0,0,0,.67-.06,1.86,1.86,0,0,0,.59-.19,1.22,1.22,0,0,0,.42-.36A1.07,1.07,0,0,0,59.25,72.69Z" transform="translate(-5.01 -4.27)"/><path class="cls-1" d="M73.92,74.94H72.49V68.31H70V67.1h6.5v1.21H73.92Z" transform="translate(-5.01 -4.27)"/><path class="cls-1" d="M89.8,73h-3l-.77,2H84.55l3.11-7.84H89l3.11,7.84H90.57Zm-1.49-4c-.27.82-.51,1.51-.73,2.06l-.27.7h2l-.27-.7c-.21-.56-.46-1.24-.73-2.06Z" transform="translate(-5.01 -4.27)"/><path class="cls-1" d="M105.3,68.17a3.14,3.14,0,0,0-1.08.19,2.28,2.28,0,0,0-.85.57,2.6,2.6,0,0,0-.56.91,3.62,3.62,0,0,0-.2,1.24,3.7,3.7,0,0,0,.19,1.21,2.34,2.34,0,0,0,.52.88,2.16,2.16,0,0,0,.83.53,3.15,3.15,0,0,0,1.11.18,7.25,7.25,0,0,0,.91-.07,5.69,5.69,0,0,0,.86-.21v1.24a5.7,5.7,0,0,1-.88.18,6.41,6.41,0,0,1-1,.07,5,5,0,0,1-1.75-.28,3.42,3.42,0,0,1-1.26-.81,3.27,3.27,0,0,1-.76-1.24,4.75,4.75,0,0,1-.26-1.6,5,5,0,0,1,.27-1.66,4.12,4.12,0,0,1,.79-1.33,3.57,3.57,0,0,1,1.28-.88,4.44,4.44,0,0,1,1.75-.33,5.69,5.69,0,0,1,.94.07,3.61,3.61,0,0,1,.8.19v1.21a6.68,6.68,0,0,0-.87-.2A5.35,5.35,0,0,0,105.3,68.17Z" transform="translate(-5.01 -4.27)"/><path class="cls-1" d="M116.9,74.94V67.1h1.43v3.57h0l3-3.57h1.78L119.83,71l3.54,4h-1.84l-3.17-3.53h0v3.53Z" transform="translate(-5.01 -4.27)"/><path class="cls-1" d="M92.69,15.93a1.49,1.49,0,0,0-1.65.32L77.6,29.7V5.79A1.52,1.52,0,0,0,75,4.72L27.57,52.16a1.19,1.19,0,0,0-.26,1.29,1.23,1.23,0,0,0,1.94.39l46-46V32.07L55.13,52.16a1.17,1.17,0,0,0-.25,1.29,1.22,1.22,0,0,0,1.93.39L75.23,35.42V53a1.19,1.19,0,0,0,2.37,0v-20L91.26,19.39V53a1.19,1.19,0,0,0,2.37,0V17.32A1.47,1.47,0,0,0,92.69,15.93Z" transform="translate(-5.01 -4.27)"/></svg>