<svg id="图层_1" data-name="图层 1" xmlns="http://www.w3.org/2000/svg" viewBox="0 0 66.4 49.91"><defs><style>.cls-1{fill:#231916;}</style></defs><title>molstack-no-letter</title><path class="cls-1" d="M70.09,15.93a1.49,1.49,0,0,0-1.65.32L55,29.7V5.79a1.51,1.51,0,0,0-2.58-1.07L5,52.16a1.17,1.17,0,0,0-.25,1.29,1.22,1.22,0,0,0,1.93.39l46-46V32.07L32.54,52.16a1.17,1.17,0,0,0-.26,1.29,1.22,1.22,0,0,0,1.93.39L52.63,35.42V53A1.19,1.19,0,0,0,55,53v-20L68.66,19.39V53A1.19,1.19,0,0,0,71,53V17.32A1.47,1.47,0,0,0,70.09,15.93Z" transform="translate(-4.62 -4.27)"/></svg>